<?xml version="1.0" encoding="UTF-8"?>
<svg id="Layer_2" xmlns="http://www.w3.org/2000/svg" version="1.1" viewBox="0 0 62.1 87.4">
  <!-- Generator: Adobe Illustrator 30.0.0, SVG Export Plug-In . SVG Version: 2.1.1 Build 123)  -->
  <g id="Layer_1-2">
    <g>
      <path d="M59.6,82.5c-.2,0-.4,0-.7,0v1.4c1.1,0,1.4-.4,1.4-.8s-.2-.6-.8-.6M48.2,82.5c-.2,0-.3,0-.5,0v1.8c1,0,1.7-.4,1.7-1s-.3-.8-1.2-.8M8.7,82.5c-.1,0-.3,0-.5,0v1.8c1.1,0,1.7-.4,1.7-1s-.3-.8-1.1-.8M35.2,84.9h1.4c0,0-.1-.4-.1-.4l-.6-1.8-.6,1.8s-.1.4-.1.4ZM14.1,84.9h1.4c0,0-.1-.4-.1-.4l-.6-1.8-.6,1.8s-.1.4-.1.4ZM20.1,82.6v3.6h.8c1.4,0,1.8-.7,1.8-1.8s-.7-1.8-2-1.8-.4,0-.7,0M58.9,86.2h1c.6,0,.8-.3.8-.7s-.6-.7-1.1-.7c-.3,0-.5,0-.8,0v1.4h0ZM59.9,87.3h-2.4v-5.8c.2,0,1.1,0,1.9,0,1.8,0,2.2.7,2.2,1.4s-.3,1.1-1.1,1.3c.8,0,1.6.5,1.6,1.4s-.8,1.8-2.2,1.8M56.2,81.4v1.2h-2.7v1.2h2.2c0-.1,0,1,0,1h-2.2v1.4h2.9v1.2h-4.2v-5.9h4.1ZM36.8,81.4l2.1,5.9h-1.5l-.5-1.4h-2.2c0,.1-.4,1.4-.4,1.4h-1.4l2.3-5.9h1.5c0,0,0,0,0,0ZM27.9,81.4h4.6v1l-2.3,2.8-.9,1h1.3s2,0,2,0v1.2h-4.9v-.9l2.4-2.9.9-.9h-1.1c0,0-2,0-2,0v-1.2h0ZM18.7,81.5c.7,0,1.4,0,2.2,0,2.4,0,3.3,1.1,3.3,2.8s-.7,3.1-3.3,3.1h-2.2v-5.9ZM15.7,81.4l2.1,5.9h-1.5l-.4-1.4h-2.2c0,.1-.4,1.4-.4,1.4h-1.4l2.3-5.9h1.5c0,0,0,0,0,0ZM43.6,84.4h1.3v2.4c-.7.4-1.7.6-2.5.6-1.8,0-3-1-3-3.1s1.1-3,3.2-3,1.8.3,2.3.8l-.8,1c-.3-.4-.8-.7-1.5-.7-1.2,0-1.8.7-1.8,1.9s.6,1.9,1.6,1.9.8,0,1.1-.2v-1.7h0ZM4.1,84.4h1.3v2.4c-.7.4-1.7.6-2.5.6-1.8,0-3-1-3-3.1s1.1-3,3.2-3,1.7.3,2.3.8l-.8,1c-.3-.4-.8-.7-1.5-.7-1.2,0-1.8.7-1.8,1.9s.6,1.9,1.6,1.9.8,0,1.1-.2c0,0,0-1.7,0-1.7ZM46.3,81.5c.7,0,1.7-.1,2.1-.1,1.7,0,2.3.9,2.3,1.9s-.3,1.2-1,1.6l1.5,2.5h-1.5c0,0-1.2-2.1-1.2-2.1-.3,0-.5.1-.8.2v1.9h-1.3v-5.8h0ZM6.8,81.5c.7,0,1.7-.1,2.1-.1,1.7,0,2.3.9,2.3,1.9s-.3,1.2-1,1.6l1.5,2.5h-1.5c0,0-1.2-2.1-1.2-2.1-.3,0-.6.1-.9.2v1.9h-1.4v-5.8h0Z"/>
      <path d="M30.4,72c-20.7-.2-28.7-16.7-28.8-27V0h59v44.9c.1,6.8-2.5,13.5-7.2,18.3-5.4,5.6-13.3,8.6-23,8.7M2.2.6v44.3c.2,10.1,7.9,26.2,28.2,26.4,9.5-.2,17.4-3.1,22.6-8.5,4.6-4.7,7.1-11.2,7-17.9V.6H2.2ZM9.6,14.9l-1.5-4.1-4.4.8,3-3.6-2.5-3,4,.5,1.6-4,1.6,4.1,4.3-.6-2.7,3.3,2.4,3.2-4.1-.6s-1.6,4-1.6,4ZM8.4,10.1h.3c0,.1,1,3,1,3l1.2-2.9,3.1.4-1.8-2.4,2-2.5-3.2.4-1.2-3.1-1.2,2.9-2.9-.3,1.8,2.2-2.2,2.6,3.1-.6h0ZM53.6,13.1c-1.3,0-2.4-.3-2.6-.6h0c0-.1,0-.3,0-.3,0-.2.3-.3.9-.5,1.2-.4,3.4-1.2,3.3-3.8,0-2.7-2.5-3.5-3.6-3.9-.5-.2-.7-.2-.8-.5h0c0-.1,0-.3,0-.3h0c.2-.3,1.3-.7,2.4-.8,1.7-.2,3.1.4,4,1.4h.1c.7.9,1.6,2,1.6,3.8,0,3.6-1.9,4.9-3.5,5.3-.6.2-1.3.3-1.9.3M51.9,12.3c.8.2,2.6.4,4.2-.3,1.5-.7,2.3-2.2,2.3-4.5s-.9-2.5-1.5-3.2h-.1c-.8-1.1-2-1.3-2.8-1.3-1,0-1.8.2-2.3.4,0,0,0,0,0,0,1.2.4,4,1.3,4,4.5,0,3.1-2.5,4-3.7,4.4,0,0,0,0-.2,0M51.3,3.5h0Z"/>
      <path d="M44.7,23.1c-.6,0-1.1-.5-1.1-1.1s.3-.9.8-1.1v-2.6h.6v2.6c.5.1.8.6.8,1.1s-.5,1.1-1.1,1.1M44.4,21.6c0,0-.1.2-.1.4,0,.3.2.5.5.5s.5-.2.5-.5,0-.3-.2-.4v.5h-.6v-.5h0ZM18.3,22.8c-.6,0-1.1-.5-1.1-1.1s.3-.9.8-1.1v-2.6h.6v2.6c.5.1.8.6.8,1.1s-.5,1.1-1.1,1.1M18,21.3c0,.1-.1.2-.1.4,0,.3.2.5.5.5s.5-.2.5-.5,0-.3-.2-.4v.5h-.6s0-.5,0-.5ZM31.4,17.6c-.6,0-1.1-.5-1.1-1.1s.3-.9.8-1.1v-2.6h.6v2.6c.5.1.8.6.8,1.1s-.5,1.1-1.1,1.1M31.1,16.1c0,0-.1.2-.1.4,0,.3.2.5.5.5s.5-.2.5-.5,0-.3-.2-.4v.5h-.6v-.5h0Z"/>
      <path d="M54.2,61c-.1,0-.2,0-.3-.2l-3.4-8-.7-20.2,2.5-2.3v-3.4s-1.3,0-1.3,0v2.1s-2.3,0-2.3,0l-.5-12.5,1.1-1.2v-2.6h-1.2v1.8h-2.6v-1.8h-1.5v1.8h-2.5v-1.8h-1.3v2.6s1,1.2,1,1.2l-.6,12.3h-2.5s-1.4-18.1-1.4-18.1l1.2-1.8v-3.2h-1.1v2.2h-2.5v-2.2h-1.3v2.2h-2.9v-2.2h-1.4v2.2h-2.5v-2.2h-1.3v3.3s1.8,1.7,1.8,1.7l-1.5,17.8h-.3c-.8,0-1.2,0-1.9,0h-.9v-.3c-.1-2.4-.2-4.1-.3-5.8,0-1.8-.1-3.6-.3-6.1h0c0-.1,1.1-1.3,1.1-1.3v-2.6h-1.2v1.9h-2.5v-1.9h-1.3v1.9h-2.6v-1.9h-1.2v2.4l.9,1.3h0c0,2.2-.1,4.1-.2,6,0,2-.1,4.1-.2,6.3v.3h-2.8c0,0,0-2.2,0-2.2h-1.5c0,0,0,3.1,0,3.1l2.6,2.5h0c0,.1-1.1,20.1-1.1,20.1l-3.1,8.2c0,.2-.2.2-.4.2s-.2-.2-.2-.4l3.1-8.1,1-19.7-2.6-2.5v-4.1s2.8.1,2.8.1v2.2h1.6c0-2.2.1-4.1.2-6.1,0-1.9.1-3.8.2-5.8l-.9-1.3v-3.2h2.5v1.9h1.3v-1.9h2.6v1.9h1.3v-1.9h1.2c.3,0,.5,0,.9,0h.3v3.5l-1.1,1.1c.1,2.5.2,4.2.3,6,0,1.6.1,3.3.2,5.5h.3c.6,0,.9,0,1.6,0l1.4-17-1.7-1.7v-4.2h2.5v2.2h1.2v-2.2h2.6s0,2.2,0,2.2h1.7v-2.2h2.6v2.2h1.2v-2.2h2.3v4l-1.2,1.8,1.3,17.2h1.3s.6-11.4.6-11.4l-1-1.2v-3.5s2.5,0,2.5,0v1.8h1.3v-1.8h2.7v1.8h1.4v-1.8s2.5,0,2.5,0v3.4s-1.1,1.2-1.1,1.2l.5,11.6h1v-2.1s2.6,0,2.6,0v4.3c0,0-2.5,2.3-2.5,2.3l.6,19.8,3.3,7.8c0,.2,0,.3-.2.4,0,0,0,0-.1,0"/>
      <path d="M43,55.7l-5.8-1.5h0c0-.1,0-.1,0-.1h-6.2c0,0-6.1,0-6.1,0v.2l-5.8,1.4v-2.9h-7.5v-.6h6.4v-2.4h-6.2v-.6h3.6v-2.2h-3.6v-.6h6.2v-2.2h-6v-.6h3.5v-2h-3.4v-.6h6v-2.4h-5.8v-.6h6.8v-1l1.2-.5.3.2c1.2.6,2.1,1,3,2.2.2-.6.7-1.5,1.5-2.3.2-.3.5-.5.8-.8h-13.5v-.6h5.8v-2.3h-5.8v-.6h16.5s4.7,0,4.7,0h0s17.3,0,17.3,0v.6h-6.2v2.3h5.4v.6h-13.4c.2.2.5.5.7.7.7.8,1.2,1.7,1.4,2.3.9-1.1,1.8-1.5,2.9-2.1l.3-.2,1.2.5v1h7.2v.6h-5.7v2.4h5.7v.6h-3.1v2h3.3v.6h-5.8v2.2h5.9v.6h-3.2v2.2s-.6,0-.6,0v-2.2h-3.7v2.2h7.5v.6h-5.8v2.4h6v.6h-7.7v3h0ZM42.2,54.8h.2s0-17.8,0-17.8h-.2c0,0,0,17.8,0,17.8ZM19.6,37.1v17.8h.2v-17.9h-.2ZM37.8,53.7l3.8,1v-4.3l-.7.6.3.5-1.2.7-.7-.7h-1.5v2.4h0ZM20.4,50.4v4.3l3.8-.9v-2.4h-1.5l-.7.7-1.2-.7.3-.5-.7-.6h0ZM30.9,53.4h5.9c0,0,0-11.8,0-11.8h-1.3v.8h-.6v-.8h-1.3v.9h-.6v-.9h-1.5v.9h-.6v-.9h-1.5v.9h-.6v-.9h-1.4v.8h-.6v-.8h-1.4v11.9h5.7c0,0,0,0,0,0ZM43,52.1h1v-2.4h-1v2.4h0ZM18.5,52.1h.5v-2.4h-.5v2.4h0ZM38.3,50.7h1.2l.6.6h.2c0,0-.2-.5-.2-.5h.1c-.3,0-.7-.3-.7-.7s.3-.6.7-.6h0c0,0,.2-.5.2-.5h0c0,0-.6.6-.6.6h-1.2c.1,0,.2.3.2.4s-.1.4-.3.5M21.7,51.2h.2c0,0,.6-.5.6-.5h1.2c-.2,0-.3-.3-.3-.5s0-.3.2-.5h-1.2l-.6-.7h0s.2.5.2.5h0c.3,0,.6.3.6.6s-.4.6-.7.6h.1c0,0-.2.5-.2.5h0ZM40.6,50c0,0,0,.1,0,.2s0,.2,0,.2l.3-.2-.3-.2ZM21.1,50.2l.3.2c0,0,0-.2,0-.2s0-.2,0-.2l-.3.2h0ZM38,50.2h0s0,0,0,0h0ZM23.9,50.2h0s0,0,0,0c0,0-.1,0,0,0ZM40,50.2h0s0,0,0,0h0ZM21.9,50.2h0s0,0,0,0c0,0-.1,0,0,0ZM40.8,49.4l.8.6v-5.5l-.7.6.3.5-1.2.7-.7-.8h-1.5v3.7h1.5l.7-.8,1.1.6-.3.5h0ZM20.4,44.5v5.5l.8-.6-.3-.5,1.1-.6.7.8h1.5v-3.7s-1.5,0-1.5,0l-.7.8-1.2-.7.3-.5-.7-.6h0ZM15.9,49.1h3.1v-2.2h-3.1v2.2h0ZM43,46.2h1v-2.2h-1v2.2ZM18.5,46.2h.5v-2.2h-.5v2.2h0ZM38.3,44.8h1.2l.6.6h.2c0,0-.2-.5-.2-.5h.1c-.3,0-.7-.3-.7-.7s.3-.6.7-.6h0c0,0,.2-.5.2-.5h0s-.6.6-.6.6h-1.2c.1,0,.2.3.2.4s-.1.4-.3.5M21.7,45.3h.2c0,0,.6-.5.6-.5h1.2c-.2,0-.3-.3-.3-.5s0-.3.2-.5h-1.2l-.6-.7h0s.2.5.2.5h0c.3,0,.6.3.6.6s-.4.7-.7.6h.1c0,0-.2.5-.2.5h0ZM40.6,44.1c0,0,0,.1,0,.2s0,.2,0,.3l.3-.2-.3-.2h0ZM21.1,44.3l.3.2c0,0,0-.2,0-.3s0-.2,0-.2c0,0-.3.2-.3.2ZM38,44.3h0s0,0,0,0h0ZM23.9,44.3h0s0,0,0,0c0,0-.1,0,0,0ZM40,44.3h0s0,0,0,0h0ZM21.9,44.3h0s0,0,0,0c0,0-.1,0,0,0ZM40.8,43.5l.8.6v-7c-1.5.8-2.5,1.3-3.8,4.1v2.1h1.5s.7-.9.7-.9l1.1.6-.3.5h0ZM20.4,37v7l.8-.6-.3-.5,1.1-.6.7.9h1.5v-2.1c-1.3-2.8-2.3-3.3-3.8-4.1M43,43.3h3.5v-2h-3.5v2ZM16,43.3h2.9v-2h-3v2h0ZM35.5,40.9h1.3v-.7c0-.1-.1-.6-.5-1.3h-.8v2h0ZM34.9,38.9h-1.3v2h1.3v-2ZM33,38.9h-1.5v2h1.5v-2ZM30.9,38.9h-1.5v2h1.5v-2ZM28.7,38.9h-1.4v2h1.4v-2ZM25.3,40.9h1.4v-2h-.9c-.4.6-.5,1.1-.5,1.3v.7h0ZM43,40.7h.9v-2.4h-.9v2.4ZM18.6,40.7h.4v-2.4h-.4v2.4h0ZM23.8,39.1c.3.4.5.9.8,1.5v-.3c0-.4.5-1.8,1.7-3.1.7-.7,1.7-1.6,3.2-1.9l-.2-.9c-3.7.9-5.3,4.2-5.3,4.8h-.2ZM37.4,40.2v.2c.3-.5.5-1,.8-1.4h0c0-.2-.4-1.5-1.7-2.8-.7-.8-1.9-1.6-3.5-2l-.2.9c1.2.3,2.2.9,3.1,1.9,1.1,1.2,1.7,2.7,1.6,3.2M35.5,38.3h.5c-.1-.2-.3-.4-.5-.6v.6ZM33.6,38.3h1.3v-1.2h0c-.4-.4-.8-.7-1.3-.9,0,0,0,2.2,0,2.1ZM31.5,38.3h1.5v-2.4c-.1,0-.3,0-.4-.1v.2h-1.1v2.4ZM29.3,38.3h1.5v-2.4h-1.2c-.1-.1-.2,0-.3,0,0,0,0,2.4,0,2.4ZM27.3,38.3h1.4v-2.1c-.5.2-1,.5-1.4.9h0v1.2ZM26.2,38.3h.5v-.6c-.2.2-.3.4-.5.6M33.1,33.6c1.4.3,2.4.9,3.2,1.6v-.3h1.3v-2.3h-4.3l-.2,1.1h0ZM29.9,34.2l.2.9c.3,0,.7,0,1.1,0,.3,0,.6,0,.9,0l.2-.9c-.3,0-.7,0-1,0s-.9,0-1.3.1M38.2,34.8h5.7v-2.3h-5.7v2.3ZM24.8,34.8h1.7c.7-.5,1.6-.9,2.6-1.2l-.3-1.2h-4.1v2.3h0ZM24.2,32.5h-5.6v2.3h5.6v-2.3ZM29.5,32.5l.2,1c.5,0,1-.1,1.5-.1.4,0,.8,0,1.2,0l.2-1h-3.1,0ZM10.1,30.1h42.4v.6H10.1v-.6ZM46.2,29h-3.7v-2.2h-2.2v-.6h3.9v-2h-3.6v-.6h1.4v-1.9h-1.3v-.6h3.2c.1-.1.3-.2.4-.3v-1.5h-3.5v-.6h1.2v-1.7h-1.3v-.6h7.9v.6h-1.5v1.7h1.5v.6h-3.7v1.5c.2,0,.3.2.5.3h3.2v.6h-1.5v1.9h1.5v.6h-3.8v2h4.1v.6h-2.8v2.2h0ZM43.2,28.3h2.4v-1.5h-2.4s0,1.5,0,1.5ZM42.7,23.5h3.8v-1.9h-.8c0,0,0,.1,0,.2,0,.6-.5,1.1-1.1,1.1s-1.1-.5-1.1-1.1,0-.1,0-.2h-.9s0,1.9,0,1.9ZM44.3,21.6c0,0,0,.1,0,.2,0,.3.2.5.5.5s.5-.2.5-.5,0-.1,0-.2h-.1v.3h-.6v-.3h0ZM45,18.6h1.5v-1.7h-3.8v1.7h1.7v-.7h.6v.7ZM20,29h-3.7v-2.2h-2.2v-.6h3.9v-1.9h-3.9v-.6h1.7v-2h-1.4v-.6h3.1c.1-.3.4-.5.6-.5v-1.2h-3.6v-.6h1.3v-1.7h-1.3v-.6h7.4v.6h-1.1v1.7h1.1v.6h-3.3v1.2c.3,0,.5.3.7.6h2.7v.6h-1.1v2h1.6v.6h-3.8v1.9h3.9v.6h-2.5v2.2h0ZM17,28.3h2.4v-1.5h-2.4v1.5ZM16.5,23.6h3.9v-2h-.8c0,.6-.5,1.1-1.1,1.1s-1-.5-1.1-1.1h-.9s0,2,0,2ZM18,21.6c0,.2.2.4.5.4s.4-.2.5-.4h-.2s-.6,0-.6,0h0s-.1,0-.1,0h0ZM18.7,18.6h1.5v-1.7h-3.8v1.7h1.6v-.7h.6s0,.7,0,.7ZM35.9,29h-3.3v-2.2h-2.3v2.1h-3.6v-2.1h-1.6v-.6h2.5v-2.9h-2.2v-.6h5.5v-2.7h-5.1v-.6h1.8v-2.3h-1.7v-.6h4.4c0-.5.3-.9.7-1.1v-1.3h-4.9v-.6h1.7v-2h-1.4v-.6h10.4v.6h-2.1v2h2.4v.6h-5.5v1.3c.4.1.8.6.8,1.1h5v.6h-2.5v2.3h2.5v.6h-5.9v2.7h6.2v.6h-2.8v2.9h3.2v.6h-2.3v2.2h0ZM33.2,28.3h2v-1.6h-2v1.6ZM27.4,28.2h2.3v-1.5h-2.3v1.5h0ZM34.4,23.2h-6.1v2.9h6.1v-2.9ZM28.3,19.2h6.1v-2.3h-2.1c-.2.3-.5.5-.9.5s-.7-.2-.9-.5h-2.2s0,2.3,0,2.3ZM31.7,16.3h.2c0-.1,0-.3-.2-.4v.4ZM31,16.3h.1v-.3c0,0-.1.2-.1.3M31.7,13.3h2.5v-2h-5.7v2h2.6v-.7h.6v.7h0ZM39.9,15.1h9.5v.6h-9.5v-.6ZM13.7,15.1h9.3v.6h-9.3v-.6ZM24.8,9.1h13.1v.6h-13.1s0-.6,0-.6Z"/>
      <path d="M54.2,61c0,0-.1,0-.2,0-10.6-6.6-27.2-12-45.7,0-.1,0-.3,0-.4,0,0-.1,0-.3,0-.4,18.7-12.1,35.5-6.7,46.3,0,.2,0,.2.3,0,.4,0,0-.2.2-.3.2"/>
    </g>
  </g>
</svg>