<?xml version="1.0" encoding="UTF-8"?>
<svg id="Layer_1" data-name="Layer 1" xmlns="http://www.w3.org/2000/svg" version="1.1" viewBox="0 0 275 96.2">
  <defs>
    <style>
      .cls-1 {
        fill: none;
        stroke: #db3eb1;
        stroke-linecap: round;
        stroke-miterlimit: 10;
        stroke-width: 2px;
      }
    </style>
  </defs>
  <path class="cls-1" d="M20.3,23.2c1.7,0,2-.8,3.3-2.9l1.2,2.4c-.3,3.8-2.8-1.4,1.4,14.2l-1.8-4c-2,17.8,5.3,41.5-1.1,41.9l-4.6-4.6c1.1-.1,1.6,1.9-2,4.8,5.1-2.6,4.6-4,3.8,1.7,4.1-5.1,4.1-3.3,13.2.5,1.2-1.4,3.1-4,8.4,1.7-.4-3.7.2-6.6-.9-5.7-.2-.5,2.6-5.1,1.3,0h-10.5c3.8-6.1.2-10.4,5.6-16.1l-4.8-8.5c-.2-.7.7,4.9,2,3.9,4.4-3.2,5.4-2.2,4-5.8,13.1,1.3,17.9,3.2,23.4-8.5-4-12.2-10.7-18.1-20.3-18.4-2,2.9-13.6-1.3-13,.9-2.1,2.2-9.2.7-7,1.9-4.1.2-2.7-3-1.7.5h0Z"/>
  <path class="cls-1" d="M27.8,46.1l3-20.1c.9-2.4,1.8,1,5.7-.8-2-4.6-1.3-6.4,2.9-1.7,8.9,0,18.5,4.4,16.4,10.1-5.7,6.5-7.6,16.9-16,18.5-.6.7-6.2-5.8-12-5.9h0Z"/>
  <path class="cls-1" d="M60.1,58.4c-.9,13.2,9.2,17.6,15.1,18.3,8.8,1.1,12.1-9.4,13.6-8.2.4,1.4,2.3-1-.2.6-.2-5.2-5.5,3-13.2,5.5,0-6.2-8.1-9.6-12.6-17.1,3.7-2.1,8.2-4.9,5.5,1,.5-.9,15.8-.7,14.8-5.9-.3,5.8,3.8,3.9,3.6,3.1,5.2-7.6-.4-14.1-9.6-12.3-10.6-3.4-10.8,9.1-16.9,14.9h0Z"/>
  <path class="cls-1" d="M64.4,50.7c6.4-1,7-5.2,13.1-6.2,0-1.1,8.5,3.8,5.4,7.7-.7,2.7,3,3.8-.7,0-6.9,0-12.6,2.9-14.9,2.9-2.5,1.7,1.2,1.3-2.9-4.5h0Z"/>
  <path class="cls-1" d="M95,47.6c-2.1-.9-1.8,0-3.3,2.2,2.9-5.6,9.8-9.3,11-5.3-1.9,1.8-4.1,9.8-3.2,15.3-2.3,11.3,4.2,11.3-2.7,13.2l-2.1-4.4c1.8,1.3,2.5,2.4-.9,5.8,1.6-1.8,2.3-4.9,5.1-5.5,2,1.1,4.4,8,4.5,10.4,4.9-8.3,1.4-10.1,11.6-3.7-1.6-2.7-4.3-.7.2-.8-4.7-6.3-2.3,2.3-3.3-3l-2.1,3.9c-3.4-5.6-2.8-4.5-2-14.6-6.7-6.1,2.3-17,5.1-13.8-3.5-2.1,3.6,2,2.2,7.3,2-5.7,1.9-10.1-.1-9.7,1.4,2.8,3.9-3.8.3-3.1-5,1.7-10,7.3-9.8,9.5-3.2-4.4,2.9,1.6,2.4.2,1.6-.1-6.4,1.3-1.8-5.9,2.1-1.2-2.9,2.8-3.4-.5,5.1,1.6,4-1.1,2.2-3.1-1.2,1.6-7.8,2.4-9.1-.6,3.9,5.8-2.2,3.2-3.5,7.5,1.7-2.7,2.4-2.2,2.6-1.1h0Z"/>
  <path class="cls-1" d="M122.1,40.1c.1,4.8,1.4,3.4,1.1,5l-3.1,1c4.6-1.3,3.9,3,4.5,4.1.6,2.6,2.2,21.2,13.6,21.7-2.7-.6-1.2,7,.6,3.3-3.1.7-3.7,1.8-2.5-1.6.5-.3.5-.6,5-3.7,3.3-8.1-.5-9.4,4.6-18.9-.9-2.4,2.2.7-2.5.4,4.3,2.8,2.3,1.8,7.2,4.3,1.6,7.3,5.9,12.9,2.6,13.8-.7,1.2,7,10.3,3.9,7.3,2.7.6,0,1.1,1.3,0-1.7-6.4,1.3-5.2,3-10.2,3.3-5.5,9-15.9,5.9-19.6,4.6.7,2.6-.2,6.5-2.4l-2.1-1.5c-2.7,4.4,1,6.4.6,6.5-1.7-6.4,3-3.2-.2-2.4-3.2-2.8-3.6-3.6-5.5-2.9,2.9-.5-3.7-1-7.8-.9,5.6,4.6-1,.5,7.2,1.1-2.5,2.2-3.2,3.4-1.4,0l-2.1-3.1c5.4,4.6,4.2,3.1,2.4,5.4,0,4.4-4.5,14.8-6.5,23.7,3.2-.1-.5,1.4,5.1.6-2.2-4.1-3.5,1-2.8-5.2-8.3-8-12.7-17.8-7.6-20.8-2.2,5.1-1.1,3.9,3.4.8l2.4.8c-.9,2.2-5.8-1.4-4.2-.3-3.3-3.2,4.3-1.5-2.2-1,0,2-1.5,1-5.7-4.8-5.7,5.7,1.1,3-5.8.1,2.9,1.3,6.3-1-1.1,4.7,8.3,4.7,3.6,1.8,2.4,5l-.3-6.5c5.9,4.6,1.8,3.6,3.3.4,2.7,2.5,3.4,2.3,0,2.5.3,3.6,3.2,4.1,4.8,1.2-5.8,10.5-10.2,13.9-3.8,15.8-6.8,2.8-8.5-.7-5.7,4.6-1.7,3.8-.3.6-2,.8-2.4-8.8-6.3-21.7-4.6-22-4.1-2.6,1-1.4-1.9-2l6-.8c-6.6-.1-5.9.2.8,1.9-6.2-6.7-3.7-2.4-4.4,1.7-3.7-2.2-8.5-7-3.7-5.9-7.5,5.1-8.3,2.5-7.5,1.3-.2,3-1,2-.8-3.4h0Z"/>
  <path class="cls-1" d="M178.9,60.4c-3.4,7.5,3.6,18.9,15.1,13.2,6.6,3.8,12.8-4.4,14.5-14.4-3-12.9-7.4-11.1-12.5-19-16.5-.5-21.3,11.4-17.1,20.1h0Z"/>
  <path class="cls-1" d="M179.5,57.2c3.5-3,2.9-15.3,13-14.1,8.9,2.9,10.5,9.7,5.5,12-1,9.8,3,16.5-10.4,15.2-7.3,4.7-9.8-6.9-8.2-13h0Z"/>
  <path class="cls-1" d="M207.9,22.9c0-2.7,1.8-.8,3.6,1.4.7-1.8,3,1,4,4.9,1.7-5.3-1.5-4,.4-6.6,1,11.4-2,34.5.5,41.3,3.4,4.2,0,9.4,1.4,9.2h-8.5c.8,1.6,4.4-.6,3.8-.7-2.2-2.2-3.2,5.2,1.4,2.9-1.7.2-.2,2.2,4.9-2.4,7.2,2.1,6,3.4,6.9-1.2-1.2,5.2.5,4.6.4,3,0,.9,1.4-1.8-.5-5.7l-3.5,1.2c.2,2.2-.9-1.2-1.3-.7,2.2-19.8-1.1-24.6,3.5-50.9-4.7-1-5.1.1-1.6,1-4.7,1.2-10.7-1.6-12.5-.3,1.1-4.5,1.8-.5-3.4-1.5,0,6.6-.3,5.2.6,5.1h0Z"/>
  <path class="cls-1" d="M235,70.2c-2,6.7-4.9,1.5-5.2,2.1,6.7-2.7,2.8-.8,10.6-3.8,6.1,4.5,3.6,8.9,12.1,9.6-6.1-.7-.1-.9-2.1-2.6,2.2-.8,1.7,0-3.8-2.1l-9-3.6c6.3-.2.2-6.5,4.1-9.9l-.7-18.4c-1,5.6.4,6.6,3,2.5l8.9,3.6c.2-3,3.5-6.6-2.2-4.1-1.1,1.4.6.6,7.4,2.9l-18.7-1.9c0,2.2,4.9,1.2,4.9,1.6,1.3-9.8-2-8.6-2.4-13.8.7-4,2.5-13.8,6.6-11.4.6,3.6,1.1,2.9-2,6-1.6-1.1,4,.3,3.6.7-.6-.3,7.1,0,8-.5-2.3-6.5-8.8-4.8-12.6-9.6-4.7.9-8.2,11.5-7.9,15.6-3.3,6.4.3,8.7-4.7,9.1,3.6,1.6,1.6,1.1,1.2.9l-.8-.7c1.8,1.2-2.2,2.6-1.7,1.1,3.1,3.7,3.5,5,3,4.8l2.1.7c-.8-3.5-6.9,4.2-2.3,9.6l.8,1.5c4.8,1.5-2.3,2.8-.1,9.2,1.3,3.2-2.7,6.6,2.3-.5l-9.9,5.3c1.9-1.4,4.3-2.1,7.1-3.9h0Z"/>
</svg>