<?xml version="1.0" encoding="UTF-8"?>
<svg id="Layer_2" xmlns="http://www.w3.org/2000/svg" version="1.1" viewBox="0 0 168.9 88">
  <!-- Generator: Adobe Illustrator 30.0.0, SVG Export Plug-In . SVG Version: 2.1.1 Build 123)  -->
  <g id="Layer_1-2">
    <g>
      <polygon points="0 .5 6 .5 15.4 22.2 15.7 22.2 15.7 .5 19.2 .5 19.2 25.7 13.1 25.7 3.8 4 3.6 4 3.6 25.7 0 25.7 0 .5"/>
      <polygon points="58 .5 61.8 .5 68.9 22.2 69.1 22.2 76.3 .5 80.3 .5 71.5 25.7 66.6 25.7 58 .5"/>
      <polygon points="82.1 22.4 85.7 22.4 85.7 3.7 82.1 3.7 82.1 .5 92.8 .5 92.8 3.7 89.2 3.7 89.2 22.4 92.8 22.4 92.8 25.7 82.1 25.7 82.1 22.4"/>
      <g>
        <path d="M0,31.4h8.3c4.6,0,7.7,3.1,7.7,7.7s-3.3,7.8-7.8,7.8H3.6v9.6H0v-25.2ZM8.1,43.7c2.6,0,4.3-1.9,4.3-4.5s-1.7-4.4-4.3-4.4H3.6v8.9h4.5Z"/>
        <path d="M18.6,31.4h8c5,0,8.2,3,8.2,7.5s-1.9,6.5-5.5,7.4l6.4,10.3h-4.3l-5.7-9.9h-3.5v9.9h-3.6v-25.2ZM26.6,43.5c2.6,0,4.5-1.5,4.5-4.5s-1.5-4.2-4.7-4.2h-4.2v8.7h4.4Z"/>
        <path d="M37.4,44c0-7.4,5.4-13.1,12.6-13.1s12.6,5.7,12.6,13.1-5.4,13.1-12.6,13.1-12.6-5.6-12.6-13.1M58.9,44c0-5.5-3.9-9.6-8.9-9.6s-8.9,4.1-8.9,9.6,3.8,9.6,8.9,9.6,8.9-4,8.9-9.6"/>
        <path d="M64.2,48.8h3.6c0,2.8,2.2,4.8,5.5,4.8s4.9-1.4,4.9-3.7c0-7-13.2-1.9-13.2-12s2.9-7,8.1-7,8.3,2.2,8.3,7.6h-3.6c0-2.6-1.7-4.3-4.7-4.3s-4.5,1.8-4.5,3.6c0,6.2,13.3,1.7,13.3,11.9s-3.2,7.3-8.7,7.3-8.9-3.4-8.9-8.3"/>
      </g>
      <polygon points="90 34.8 83.1 34.8 83.1 31.4 100.6 31.4 100.6 34.8 93.6 34.8 93.6 56.6 90 56.6 90 34.8"/>
      <path d="M138.6,31.4h8c5.1,0,8.2,3,8.2,7.5s-1.9,6.5-5.5,7.4l6.4,10.3h-4.3l-5.7-9.9h-3.5v9.9h-3.6v-25.2h0ZM146.6,43.5c2.6,0,4.5-1.5,4.5-4.5s-1.5-4.2-4.7-4.2h-4.2v8.7h4.4Z"/>
      <polygon points="158.2 31.4 158.2 34.7 161.8 34.7 161.8 53.3 158.2 53.3 158.2 56.6 168.9 56.6 168.9 53.3 165.4 53.3 165.4 34.7 168.9 34.7 168.9 31.4 158.2 31.4"/>
      <polygon points="13.5 62.4 6.7 72.8 3.6 72.8 3.6 62.4 0 62.4 0 87.6 3.6 87.6 3.6 76.2 6.7 76.2 13.8 87.6 18.2 87.6 9.6 74.4 17.8 62.4 13.5 62.4"/>
      <polygon points="52.2 62.4 52.2 87.6 66.1 87.6 66.1 84.2 55.8 84.2 55.8 62.4 52.2 62.4"/>
      <polygon points="62 62.4 62 65.7 69 65.7 69 87.6 72.5 87.6 72.5 65.7 79.5 65.7 79.5 62.4 62 62.4"/>
      <g>
        <path d="M82.1,78.4v-16h3.5v16c0,3.8,2,6.2,5.8,6.2s5.8-2.4,5.8-6.3v-16h3.5v16c0,5.7-3.4,9.7-9.3,9.7s-9.3-3.9-9.3-9.7"/>
        <path d="M103.8,62.4h8c5.1,0,8.2,3,8.2,7.5s-1.9,6.5-5.5,7.4l6.3,10.3h-4.3l-5.7-9.9h-3.5v9.9h-3.6s0-25.2,0-25.2ZM111.8,74.4c2.6,0,4.5-1.6,4.5-4.5s-1.5-4.2-4.7-4.2h-4.2v8.7h4.4Z"/>
      </g>
      <polygon points="123 62.4 123 87.6 137.8 87.6 137.8 84.2 126.6 84.2 126.6 76.4 135.9 76.4 135.9 73.1 126.6 73.1 126.6 65.7 137.4 65.7 137.4 62.4 123 62.4"/>
      <g>
        <path d="M45.6,0h-11c-7.2,0-12.6,5.7-12.6,13.1s5.4,13.1,12.6,13.1h11.1c7.2,0,12.6-5.6,12.6-13.1S52.8,0,45.6,0M45.6,22.6h-11c-5.1,0-8.9-4-8.9-9.6s3.8-9.6,8.9-9.6h11c5.1,0,8.9,4.1,8.9,9.6s-3.8,9.6-8.9,9.6"/>
        <path d="M123.5,31.4h-11c-7.2,0-12.6,5.7-12.6,13.1s5.4,13.1,12.6,13.1h11.1c7.2,0,12.6-5.6,12.6-13.1s-5.4-13.1-12.6-13.1M123.5,54h-11c-5.1,0-8.9-4-8.9-9.6s3.8-9.6,8.9-9.6h11c5.1,0,8.9,4.1,8.9,9.6s-3.8,9.6-8.9,9.6"/>
        <path d="M45.6,62.4v16c0,3.8-2,6.2-5.8,6.2h0s-11,0-11,0h0c-3.5-.2-5.4-2.6-5.4-6.2v-16h-3.5v16c0,5.6,3.2,9.5,8.9,9.6h0s11,0,11,0h0c6,0,9.3-3.9,9.3-9.7v-16h-3.5Z"/>
      </g>
    </g>
  </g>
</svg>